<?xml version="1.0" encoding="UTF-8" standalone="no"?>
<!-- Created with Inkscape (http://www.inkscape.org/) -->

<svg
   xmlns:dc="http://purl.org/dc/elements/1.1/"
   xmlns:cc="http://creativecommons.org/ns#"
   xmlns:rdf="http://www.w3.org/1999/02/22-rdf-syntax-ns#"
   xmlns:svg="http://www.w3.org/2000/svg"
   xmlns="http://www.w3.org/2000/svg"
   xmlns:sodipodi="http://sodipodi.sourceforge.net/DTD/sodipodi-0.dtd"
   xmlns:inkscape="http://www.inkscape.org/namespaces/inkscape"
   id="svg2"
   version="1.1"
   inkscape:version="0.91 r13725"
   xml:space="preserve"
   width="150"
   height="100.09497"
   viewBox="0 0 149.99999 100.09497"
   sodipodi:docname="logo.svg"><metadata
     id="metadata8"><rdf:RDF><cc:Work
         rdf:about=""><dc:format>image/svg+xml</dc:format><dc:type
           rdf:resource="http://purl.org/dc/dcmitype/StillImage" /><dc:title></dc:title></cc:Work></rdf:RDF></metadata><defs
     id="defs6"><clipPath
       clipPathUnits="userSpaceOnUse"
       id="clipPath16"><path
         d="m 0,595.276 841.89,0 L 841.89,0 0,0 0,595.276 Z"
         id="path18"
         inkscape:connector-curvature="0" /></clipPath><clipPath
       clipPathUnits="userSpaceOnUse"
       id="clipPath28"><path
         d="m 446.283,519.37 c -7.629,-0.258 -12.265,-4.453 -13.062,-12.782 -7.032,-93.437 -10.391,-192.371 -9.782,-296.928 0,-0.222 -0.07,-0.469 -0.023,-0.668 1.391,-2.172 4.039,-4.629 11.18,-4.828 32.054,-1.195 63.383,-0.656 93.968,1.609 6.344,0.606 9.141,1.407 10.657,3.618 0.015,-0.078 0.05,-0.141 0.07,-0.211 -0.043,0.133 -0.09,0.269 -0.109,0.422 0.617,104.549 -2.602,203.549 -9.637,296.986 -0.793,8.329 -5.418,12.524 -13.051,12.782 -25.742,0.82 -49.148,0.82 -70.211,0"
         id="path30"
         inkscape:connector-curvature="0" /></clipPath><linearGradient
       x1="0"
       y1="0"
       x2="1"
       y2="0"
       gradientUnits="userSpaceOnUse"
       gradientTransform="matrix(0,446.02142,446.02142,0,481.33008,73.964844)"
       spreadMethod="pad"
       id="linearGradient36"><stop
         style="stop-opacity:1;stop-color:#fef164"
         offset="0"
         id="stop38" /><stop
         style="stop-opacity:1;stop-color:#fef164"
         offset="0.23013383"
         id="stop40" /><stop
         style="stop-opacity:1;stop-color:#ffee00"
         offset="0.38764"
         id="stop42" /><stop
         style="stop-opacity:1;stop-color:#ffee00"
         offset="0.75118544"
         id="stop44" /><stop
         style="stop-opacity:1;stop-color:#fff7a2"
         offset="1"
         id="stop46" /></linearGradient><clipPath
       clipPathUnits="userSpaceOnUse"
       id="clipPath56"><path
         d="m 251.74,193.98 -0.504,3.786 c -0.211,1.289 0.645,1.289 0.645,2.125 0.027,0.593 -0.356,0.933 -0.645,1.359 -0.57,2.223 -0.547,4.965 -0.066,6.563 0.223,0.582 0.785,1.074 0.855,1.789 -0.609,104.549 2.602,203.549 9.637,296.986 0.793,8.329 5.43,12.524 13.051,12.782 21.07,0.82 44.48,0.82 70.219,0 7.625,-0.258 12.265,-4.453 13.054,-12.782 7.032,-93.437 10.25,-192.437 9.633,-296.986 0.07,-0.715 0.633,-1.207 0.863,-1.789 0.473,-1.598 0.497,-4.34 -0.074,-6.563 -0.281,-0.426 -0.672,-0.766 -0.648,-1.359 0,-0.836 0.867,-0.836 0.648,-2.125 L 367.9,193.98 c -6.144,-39.042 -12.554,-74.179 -19.218,-105.402 -1.672,-6.492 -5.469,-11.926 -12.571,-13.32 -10.132,-1.781 -43.683,-1.629 -52.57,0 -7.102,1.394 -10.906,6.828 -12.578,13.32 -6.664,31.223 -13.07,66.36 -19.223,105.402"
         id="path58"
         inkscape:connector-curvature="0" /></clipPath><linearGradient
       x1="0"
       y1="0"
       x2="1"
       y2="0"
       gradientUnits="userSpaceOnUse"
       gradientTransform="matrix(0,446.00684,446.00684,0,309.82227,73.978516)"
       spreadMethod="pad"
       id="linearGradient64"><stop
         style="stop-opacity:1;stop-color:#c48295"
         offset="0"
         id="stop66" /><stop
         style="stop-opacity:1;stop-color:#c58395"
         offset="0.38764"
         id="stop68" /><stop
         style="stop-opacity:1;stop-color:#c58395"
         offset="0.75118544"
         id="stop70" /><stop
         style="stop-opacity:1;stop-color:#e49fb5"
         offset="1"
         id="stop72" /></linearGradient><clipPath
       clipPathUnits="userSpaceOnUse"
       id="clipPath80"><path
         d="m 274.713,519.37 c -1.688,-0.047 -3.227,-0.313 -4.613,-0.758 l -0.899,-276.667 81.481,-2.859 -2.801,279.956 c -0.934,0.183 -1.91,0.296 -2.949,0.328 -25.739,0.82 -49.149,0.82 -70.219,0"
         id="path82"
         inkscape:connector-curvature="0" /></clipPath><linearGradient
       x1="0"
       y1="0"
       x2="1"
       y2="0"
       gradientUnits="userSpaceOnUse"
       gradientTransform="matrix(0,280.89941,280.89941,0,309.94141,239.08594)"
       spreadMethod="pad"
       id="linearGradient88"><stop
         style="stop-opacity:1;stop-color:#c48295"
         offset="0"
         id="stop90" /><stop
         style="stop-opacity:1;stop-color:#e49fb5"
         offset="1"
         id="stop92" /></linearGradient><clipPath
       clipPathUnits="userSpaceOnUse"
       id="clipPath100"><path
         d="m 357.002,205.797 c 6.336,0.605 9.156,1.414 10.656,3.617 0.141,-0.609 0.617,-1.066 0.824,-1.601 0.473,-1.598 0.497,-4.34 -0.074,-6.563 -0.281,-0.426 -0.672,-0.766 -0.648,-1.359 0,-0.836 0.867,-0.836 0.648,-2.125 L 367.9,193.98 c -6.144,-39.042 -12.554,-74.179 -19.218,-105.402 -1.672,-6.492 -5.469,-11.926 -12.571,-13.32 -10.132,-1.781 -43.683,-1.629 -52.57,0 -7.102,1.394 -10.906,6.828 -12.578,13.32 -6.664,31.223 -13.07,66.36 -19.223,105.402 l -0.504,3.786 c -0.211,1.289 0.645,1.289 0.645,2.125 0.027,0.593 -0.356,0.933 -0.645,1.359 -0.57,2.223 -0.547,4.965 -0.066,6.563 0.152,0.414 0.476,0.773 0.684,1.203 1.394,-2.168 4.042,-4.629 11.179,-4.828 32.059,-1.184 63.383,-0.657 93.969,1.609"
         id="path102"
         inkscape:connector-curvature="0" /></clipPath><linearGradient
       x1="0"
       y1="0"
       x2="1"
       y2="0"
       gradientUnits="userSpaceOnUse"
       gradientTransform="matrix(1.53e-5,-135.43555,-135.43555,-1.53e-5,309.82324,209.41406)"
       spreadMethod="pad"
       id="linearGradient108"><stop
         style="stop-opacity:1;stop-color:#2e292b"
         offset="0"
         id="stop110" /><stop
         style="stop-opacity:1;stop-color:#4d504f"
         offset="1"
         id="stop112" /></linearGradient><clipPath
       clipPathUnits="userSpaceOnUse"
       id="clipPath124"><path
         d="m 293.385,87.133 -2.547,65.297 c -0.133,4.023 1.476,7.742 5.062,8.808 l 27.469,8.246 c 2.145,0.539 2.547,-0.906 0.672,-1.707 l -24.523,-8.011 c -4.141,-1.176 -6.403,-3.852 -6.403,-9.45 L 294.99,87.27 c 0.137,-1.875 -1.472,-1.875 -1.605,-0.137"
         id="path126"
         inkscape:connector-curvature="0"
         style="clip-rule:evenodd" /></clipPath><linearGradient
       x1="0"
       y1="0"
       x2="1"
       y2="0"
       gradientUnits="userSpaceOnUse"
       gradientTransform="matrix(0,-83.756348,-83.756348,0,308.03516,169.60156)"
       spreadMethod="pad"
       id="linearGradient132"><stop
         style="stop-opacity:1;stop-color:#404241"
         offset="0"
         id="stop134" /><stop
         style="stop-opacity:1;stop-color:#4d504f"
         offset="1"
         id="stop136" /></linearGradient><clipPath
       clipPathUnits="userSpaceOnUse"
       id="clipPath146"><path
         d="m 88.76,193.98 -0.496,3.786 c -0.215,1.289 0.64,1.289 0.64,2.125 0.035,0.593 -0.355,0.933 -0.64,1.359 -0.575,2.223 -0.551,4.965 -0.075,6.563 0.227,0.582 0.79,1.074 0.86,1.789 -0.613,104.549 2.601,203.549 9.637,296.986 0.789,8.329 5.429,12.524 13.058,12.782 21.063,0.82 44.469,0.82 70.211,0 7.625,-0.258 12.266,-4.453 13.055,-12.782 7.039,-93.437 10.25,-192.437 9.636,-296.986 0.075,-0.715 0.641,-1.207 0.856,-1.789 0.48,-1.598 0.508,-4.34 -0.07,-6.563 -0.286,-0.426 -0.672,-0.766 -0.645,-1.359 0,-0.836 0.856,-0.836 0.645,-2.125 l -0.496,-3.786 c -6.161,-39.042 -12.567,-74.179 -19.227,-105.402 -1.676,-6.492 -5.473,-11.926 -12.578,-13.32 -10.129,-1.781 -43.676,-1.629 -52.567,0 -7.101,1.394 -10.902,6.828 -12.57,13.32 -6.672,31.223 -13.078,66.36 -19.234,105.402"
         id="path148"
         inkscape:connector-curvature="0" /></clipPath><linearGradient
       x1="0"
       y1="0"
       x2="1"
       y2="0"
       gradientUnits="userSpaceOnUse"
       gradientTransform="matrix(0,446.00684,446.00684,0,146.84766,73.978516)"
       spreadMethod="pad"
       id="linearGradient154"><stop
         style="stop-opacity:1;stop-color:#43a7d1"
         offset="0"
         id="stop156" /><stop
         style="stop-opacity:1;stop-color:#43a7d1"
         offset="0.23013383"
         id="stop158" /><stop
         style="stop-opacity:1;stop-color:#43a7d1"
         offset="0.38764"
         id="stop160" /><stop
         style="stop-opacity:1;stop-color:#43a7d1"
         offset="0.75118544"
         id="stop162" /><stop
         style="stop-opacity:1;stop-color:#91cce2"
         offset="1"
         id="stop164" /></linearGradient><clipPath
       clipPathUnits="userSpaceOnUse"
       id="clipPath172"><path
         d="m 111.744,519.37 c -1.691,-0.047 -3.23,-0.313 -4.617,-0.758 l -0.906,-276.667 81.488,-2.859 -2.809,279.956 c -0.921,0.183 -1.902,0.296 -2.945,0.328 -25.742,0.82 -49.148,0.82 -70.211,0"
         id="path174"
         inkscape:connector-curvature="0" /></clipPath><linearGradient
       x1="0"
       y1="0"
       x2="1"
       y2="0"
       gradientUnits="userSpaceOnUse"
       gradientTransform="matrix(0,280.89941,280.89941,0,146.96484,239.08594)"
       spreadMethod="pad"
       id="linearGradient180"><stop
         style="stop-opacity:1;stop-color:#43a7d1"
         offset="0"
         id="stop182" /><stop
         style="stop-opacity:1;stop-color:#43a7d1"
         offset="0.18247889"
         id="stop184" /><stop
         style="stop-opacity:1;stop-color:#91cce2"
         offset="1"
         id="stop186" /></linearGradient><clipPath
       clipPathUnits="userSpaceOnUse"
       id="clipPath194"><path
         d="m 194.029,205.797 c 6.336,0.605 9.145,1.414 10.653,3.617 0.14,-0.609 0.625,-1.066 0.82,-1.601 0.48,-1.598 0.508,-4.34 -0.07,-6.563 -0.286,-0.426 -0.672,-0.766 -0.645,-1.359 0,-0.836 0.856,-0.836 0.645,-2.125 l -0.496,-3.786 c -6.161,-39.042 -12.567,-74.179 -19.227,-105.402 -1.676,-6.492 -5.473,-11.926 -12.578,-13.32 -10.129,-1.781 -43.676,-1.629 -52.567,0 -7.101,1.394 -10.902,6.828 -12.57,13.32 -6.672,31.223 -13.078,66.36 -19.234,105.402 l -0.496,3.786 c -0.215,1.289 0.64,1.289 0.64,2.125 0.035,0.593 -0.355,0.933 -0.64,1.359 -0.575,2.223 -0.551,4.965 -0.075,6.563 0.157,0.414 0.485,0.773 0.688,1.203 1.398,-2.168 4.047,-4.629 11.18,-4.828 32.058,-1.184 63.386,-0.657 93.972,1.609"
         id="path196"
         inkscape:connector-curvature="0" /></clipPath><linearGradient
       x1="0"
       y1="0"
       x2="1"
       y2="0"
       gradientUnits="userSpaceOnUse"
       gradientTransform="matrix(1.53e-5,-135.43555,-135.43555,-1.53e-5,146.84863,209.41406)"
       spreadMethod="pad"
       id="linearGradient202"><stop
         style="stop-opacity:1;stop-color:#2e292b"
         offset="0"
         id="stop204" /><stop
         style="stop-opacity:1;stop-color:#4d504f"
         offset="1"
         id="stop206" /></linearGradient><clipPath
       clipPathUnits="userSpaceOnUse"
       id="clipPath218"><path
         d="m 130.408,87.133 -2.547,65.297 c -0.129,4.023 1.477,7.742 5.059,8.808 l 27.476,8.246 c 2.141,0.539 2.543,-0.906 0.665,-1.707 l -24.52,-8.011 c -4.141,-1.176 -6.398,-3.852 -6.398,-9.45 l 1.875,-63.046 c 0.132,-1.875 -1.473,-1.875 -1.61,-0.137"
         id="path220"
         inkscape:connector-curvature="0"
         style="clip-rule:evenodd" /></clipPath><linearGradient
       x1="0"
       y1="0"
       x2="1"
       y2="0"
       gradientUnits="userSpaceOnUse"
       gradientTransform="matrix(0,-83.756348,-83.756348,0,145.05859,169.60156)"
       spreadMethod="pad"
       id="linearGradient226"><stop
         style="stop-opacity:1;stop-color:#404241"
         offset="0"
         id="stop228" /><stop
         style="stop-opacity:1;stop-color:#4d504f"
         offset="1"
         id="stop230" /></linearGradient><clipPath
       clipPathUnits="userSpaceOnUse"
       id="clipPath238"><path
         d="m 446.283,519.37 c -1.695,-0.047 -3.226,-0.313 -4.625,-0.758 l -0.898,-276.667 81.492,-2.859 -2.813,279.956 c -0.929,0.183 -1.906,0.296 -2.945,0.328 -25.742,0.82 -49.148,0.82 -70.211,0"
         id="path240"
         inkscape:connector-curvature="0" /></clipPath><linearGradient
       x1="0"
       y1="0"
       x2="1"
       y2="0"
       gradientUnits="userSpaceOnUse"
       gradientTransform="matrix(0,280.89941,280.89941,0,481.50586,239.08594)"
       spreadMethod="pad"
       id="linearGradient246"><stop
         style="stop-opacity:1;stop-color:#fff263"
         offset="0"
         id="stop248" /><stop
         style="stop-opacity:1;stop-color:#fff7a2"
         offset="0.98388398"
         id="stop250" /><stop
         style="stop-opacity:1;stop-color:#fff7a2"
         offset="1"
         id="stop252" /></linearGradient><clipPath
       clipPathUnits="userSpaceOnUse"
       id="clipPath262"><path
         d="m 720.096,210.125 c 5.883,-0.516 8.925,-1.332 10.648,-3.066 0.149,-0.61 0.625,-1.067 0.828,-1.598 0.473,-1.602 0.496,-2.832 -0.07,-5.055 -0.297,-0.426 -0.68,-0.765 -0.648,-1.359 0,-0.836 0.859,-0.836 0.648,-2.125 l -0.508,-3.785 c -6.148,-39.043 -12.562,-74.18 -19.223,-105.399 -1.667,-6.496 -5.472,-11.929 -12.574,-13.324 -10.133,-1.781 -43.679,-1.629 -52.57,0 -7.094,1.395 -10.906,6.828 -12.57,13.324 -6.664,31.219 -13.078,66.356 -19.227,105.399 l -0.5,3.785 c -0.219,1.289 0.641,1.289 0.641,2.125 0.031,0.594 -0.352,0.933 -0.641,1.359 -0.578,2.223 -0.551,4.965 -0.078,6.563 0.16,0.414 0.484,0.773 0.687,1.203 1.418,1.418 2.563,0.867 11.18,1.851 31.688,2.282 63.703,1.36 93.977,0.102"
         id="path264"
         inkscape:connector-curvature="0" /></clipPath><linearGradient
       x1="0"
       y1="0"
       x2="1"
       y2="0"
       gradientUnits="userSpaceOnUse"
       gradientTransform="matrix(-118.03027,0,0,118.03027,731.92676,142.27734)"
       spreadMethod="pad"
       id="linearGradient270"><stop
         style="stop-opacity:1;stop-color:#2e292b"
         offset="0"
         id="stop272" /><stop
         style="stop-opacity:1;stop-color:#4d504f"
         offset="1"
         id="stop274" /></linearGradient><clipPath
       clipPathUnits="userSpaceOnUse"
       id="clipPath282"><path
         d="m 658.381,94.02 -2.551,65.296 c -0.133,4.02 1.477,7.735 5.063,8.813 l 27.468,8.238 c 2.149,0.531 2.551,-0.902 0.672,-1.711 l -24.523,-8.004 c -4.141,-1.183 -6.399,-3.855 -6.399,-9.445 l 1.875,-63.051 c 0.133,-1.883 -1.468,-1.883 -1.605,-0.136"
         id="path284"
         inkscape:connector-curvature="0"
         style="clip-rule:evenodd" /></clipPath><linearGradient
       x1="0"
       y1="0"
       x2="1"
       y2="0"
       gradientUnits="userSpaceOnUse"
       gradientTransform="matrix(-34.412109,0,0,34.412109,690.23438,134.60547)"
       spreadMethod="pad"
       id="linearGradient290"><stop
         style="stop-opacity:1;stop-color:#404241"
         offset="0"
         id="stop292" /><stop
         style="stop-opacity:1;stop-color:#4d504f"
         offset="1"
         id="stop294" /></linearGradient><clipPath
       clipPathUnits="userSpaceOnUse"
       id="clipPath302"><path
         d="m 468.49,94.406 c 0,-2.59 1.617,-3.476 3.399,-2.828 1.777,0.649 11.793,4.774 13.011,5.336 1.215,0.563 3.719,1.699 3.719,4.441 l 0,19.079 -20.129,0 0,-26.028 z"
         id="path304"
         inkscape:connector-curvature="0" /></clipPath><linearGradient
       x1="0"
       y1="0"
       x2="1"
       y2="0"
       gradientUnits="userSpaceOnUse"
       gradientTransform="matrix(0,29.059082,29.059082,0,478.55469,91.375)"
       spreadMethod="pad"
       id="linearGradient310"><stop
         style="stop-opacity:1;stop-color:#fff263"
         offset="0"
         id="stop312" /><stop
         style="stop-opacity:1;stop-color:#fff7a2"
         offset="0.98388398"
         id="stop314" /><stop
         style="stop-opacity:1;stop-color:#fff7a2"
         offset="1"
         id="stop316" /></linearGradient><clipPath
       clipPathUnits="userSpaceOnUse"
       id="clipPath324"><path
         d="m 423.377,208.488 c 0,-1.383 -1.203,-3.738 6.812,-3.738 0,-4.547 3.055,-6.125 3.055,-6.125 0,0 29.93,-15.062 29.93,-74.828 0,-4.367 3.062,-5.098 3.062,-5.098 l 23.469,0 c 0,0 6.465,-0.613 6.465,4.426 0,55.363 31.969,74.555 31.969,74.555 0,0 3.738,2.136 3.738,6.461 5.984,0 7.488,2.82 7.488,4.078 l 0,3.269 c 0,1.778 -115.863,2.567 -115.863,-0.215 0,-2.785 -0.125,-1.398 -0.125,-2.785"
         id="path326"
         inkscape:connector-curvature="0" /></clipPath><linearGradient
       x1="0"
       y1="0"
       x2="1"
       y2="0"
       gradientUnits="userSpaceOnUse"
       gradientTransform="matrix(1.53e-5,-94.421387,-94.421387,-1.53e-5,481.33789,213.09668)"
       spreadMethod="pad"
       id="linearGradient332"><stop
         style="stop-opacity:1;stop-color:#2e292b"
         offset="0"
         id="stop334" /><stop
         style="stop-opacity:1;stop-color:#4d504f"
         offset="1"
         id="stop336" /></linearGradient></defs><sodipodi:namedview
     pagecolor="#ffffff"
     bordercolor="#666666"
     borderopacity="1"
     objecttolerance="10"
     gridtolerance="10"
     guidetolerance="10"
     inkscape:pageopacity="0"
     inkscape:pageshadow="2"
     inkscape:window-width="1280"
     inkscape:window-height="711"
     id="namedview4"
     showgrid="false"
     inkscape:zoom="3.588299"
     inkscape:cx="93.939996"
     inkscape:cy="47.97975"
     inkscape:window-x="85"
     inkscape:window-y="18"
     inkscape:window-maximized="0"
     inkscape:current-layer="g10" /><g
     id="g10"
     inkscape:groupmode="layer"
     inkscape:label="Textmarker"
     transform="matrix(1.25,0,0,-1.25,0,100.095)"><g
       id="g4941"
       transform="translate(-0.52172099,2.3613029)"><g
         transform="matrix(0.19675588,0,0,0.19675588,-48.557419,-0.17425506)"
         id="g4955"><g
           id="g32"
           transform="matrix(0.51195849,-0.33052009,0.30722011,0.47496102,207.61442,259.36213)"
           style="fill:#00ff00;fill-opacity:1"><g
             id="g34"
             style="fill:#00ff00;fill-opacity:1"><path
               d="m 446.283,519.37 c -7.629,-0.258 -12.265,-4.453 -13.062,-12.782 -7.032,-93.437 -10.391,-192.371 -9.782,-296.928 0,-0.222 -0.07,-0.469 -0.023,-0.668 1.391,-2.172 4.039,-4.629 11.18,-4.828 32.054,-1.195 63.383,-0.656 93.968,1.609 6.344,0.606 9.141,1.407 10.657,3.618 0.015,-0.078 0.05,-0.141 0.07,-0.211 -0.043,0.133 -0.09,0.269 -0.109,0.422 0.617,104.549 -2.602,203.549 -9.637,296.986 -0.793,8.329 -5.418,12.524 -13.051,12.782 -25.742,0.82 -49.148,0.82 -70.211,0"
               style="fill:#00ff00;fill-opacity:1;stroke:none"
               id="path48"
               inkscape:connector-curvature="0" /></g></g><g
           id="g306"
           transform="matrix(0.51682278,-0.32286374,0.32286374,0.51682278,201.12637,246.29354)"
           style="fill:#00ff00"><g
             id="g308"
             style="fill:#00ff00"><path
               d="m 468.49,94.406 c 0,-2.59 1.617,-3.476 3.399,-2.828 1.777,0.649 11.793,4.774 13.011,5.336 1.215,0.563 3.719,1.699 3.719,4.441 l 0,19.079 -20.129,0 0,-26.028 z"
               style="fill:#00ff00;stroke:none"
               id="path318"
               inkscape:connector-curvature="0" /></g></g><g
           id="g328"
           transform="matrix(0.51682278,-0.32286374,0.32286374,0.51682278,201.12637,246.29354)"
           style="fill:#333333"><g
             id="g330"
             style="fill:#333333"><path
               d="m 423.377,208.488 c 0,-1.383 -1.203,-3.738 6.812,-3.738 0,-4.547 3.055,-6.125 3.055,-6.125 0,0 29.93,-15.062 29.93,-74.828 0,-4.367 3.062,-5.098 3.062,-5.098 l 23.469,0 c 0,0 6.465,-0.613 6.465,4.426 0,55.363 31.969,74.555 31.969,74.555 0,0 3.738,2.136 3.738,6.461 5.984,0 7.488,2.82 7.488,4.078 l 0,3.269 c 0,1.778 -115.863,2.567 -115.863,-0.215 0,-2.785 -0.125,-1.398 -0.125,-2.785"
               style="fill:#333333;stroke:none"
               id="path338"
               inkscape:connector-curvature="0" /></g></g><path
           style="opacity:1;fill:#008080;fill-opacity:0.32156863;stroke:#ffffff;stroke-width:0;stroke-linecap:round;stroke-linejoin:round;stroke-miterlimit:4;stroke-dasharray:none;stroke-dashoffset:0;stroke-opacity:1"
           d="m 510.55269,252.85832 59.7883,-38.04992 -21.63218,-33.90121 -59.97962,38.24085 z"
           id="rect4948"
           inkscape:connector-curvature="0"
           sodipodi:nodetypes="ccccc" /><g
           transform="matrix(0.34383684,-0.21748984,-0.21748984,-0.34383684,437.19112,358.40025)"
           style="font-style:normal;font-weight:normal;font-size:40px;line-height:125%;font-family:sans-serif;letter-spacing:0px;word-spacing:0px;fill:#ffffff;fill-opacity:1;stroke:none;stroke-width:1px;stroke-linecap:butt;stroke-linejoin:miter;stroke-opacity:1"
           id="flowRoot5065"><path
             d="m 354.69375,196.04336 q -2.24,0 -3.92,-0.42 -1.68,-0.42 -3.29,-1.4 -0.98,-0.56 -1.96,-1.4 -0.98,-0.84 -1.68,-1.82 -0.7,-0.98 -0.91,-2.1 -0.14,-1.12 0.56,-2.24 0.21,-0.35 0.77,-0.84 0.56,-0.49 1.33,-0.77 0.77,-0.28 1.61,-0.21 0.91,0 1.82,0.7 0.98,0.77 2.03,1.68 1.05,0.84 2.45,0.84 1.12,0 1.68,-0.35 0.63,-0.42 0.91,-1.26 0.28,-0.84 0.28,-2.24 0.07,-1.47 0.07,-3.57 l 0,-31.85 q 0,-1.26 1.05,-2.45 1.05,-1.19 3.5,-1.19 2.45,0 3.5,1.12 1.05,1.12 1.05,2.52 l 0,35.84 q 0,3.15 -0.77,5.39 -0.7,2.17 -2.1,3.5 -1.4,1.33 -3.43,1.89 -2.03,0.63 -4.55,0.63 z"
             style="font-style:normal;font-variant:normal;font-weight:normal;font-stretch:normal;font-size:70px;font-family:'Yuanti SC';-inkscape-font-specification:'Yuanti SC';fill:#ffffff"
             id="path4964"
             inkscape:connector-curvature="0" /><path
             d="m 381.82422,158.31336 q 0,1.61 0.98,2.8 0.98,1.19 2.38,2.1 1.47,0.91 3.01,1.54 1.61,0.63 2.87,1.19 3.15,1.4 5.46,2.8 2.31,1.4 3.78,3.01 1.54,1.61 2.17,3.64 0.7,2.03 0.63,4.62 -0.14,6.93 -4.34,11.2 -4.2,4.2 -12.81,4.48 -3.15,0.14 -5.95,-0.77 -2.73,-0.84 -4.76,-1.89 -1.82,-0.91 -2.94,-2.03 -1.05,-1.19 -1.54,-2.38 -0.49,-1.19 -0.49,-2.31 0.07,-1.12 0.63,-1.89 0.98,-1.54 2.31,-1.68 1.4,-0.21 2.59,0.56 1.05,0.7 2.17,1.54 1.19,0.77 2.45,1.47 1.33,0.63 2.73,1.05 1.47,0.42 3.15,0.42 1.4,0 2.73,-0.49 1.4,-0.49 2.45,-1.4 1.05,-0.91 1.68,-2.24 0.63,-1.4 0.63,-3.15 0,-1.68 -0.77,-2.94 -0.77,-1.26 -1.89,-2.17 -1.05,-0.98 -2.38,-1.61 -1.26,-0.63 -2.31,-0.98 -2.94,-1.05 -5.53,-2.24 -2.52,-1.26 -4.41,-2.94 -1.89,-1.68 -3.01,-3.99 -1.12,-2.31 -1.12,-5.46 0,-3.36 1.33,-5.88 1.4,-2.59 3.64,-4.27 2.24,-1.68 5.04,-2.52 2.87,-0.84 5.81,-0.77 3.29,0.07 6.09,1.05 2.8,0.98 4.62,2.45 1.89,1.47 2.52,3.22 0.7,1.68 -0.21,3.22 -0.49,0.77 -1.26,1.26 -0.7,0.42 -1.54,0.63 -0.77,0.14 -1.54,0 -0.77,-0.14 -1.26,-0.56 -0.7,-0.49 -1.61,-1.05 -0.91,-0.63 -1.96,-1.12 -0.98,-0.49 -2.17,-0.84 -1.12,-0.35 -2.31,-0.35 -1.33,0 -2.38,0.56 -1.05,0.49 -1.82,1.33 -0.7,0.77 -1.12,1.82 -0.42,0.98 -0.42,1.96 z"
             style="font-style:normal;font-variant:normal;font-weight:normal;font-stretch:normal;font-size:70px;font-family:'Yuanti SC';-inkscape-font-specification:'Yuanti SC';fill:#ffffff"
             id="path4966"
             inkscape:connector-curvature="0" /></g></g><g
         transform="matrix(0.40586391,0,0,-0.40586391,-271.05141,70.455858)"
         style="font-style:normal;font-weight:normal;font-size:40px;line-height:125%;font-family:sans-serif;letter-spacing:0px;word-spacing:0px;fill:#00ff00;fill-opacity:1;stroke:none;stroke-width:1px;stroke-linecap:butt;stroke-linejoin:miter;stroke-opacity:1"
         id="flowRoot5073"><path
           d="m 714.78461,128.71535 q 0,-0.72 0.52,-1.4 0.56,-0.68 2.04,-0.68 1.4,0 2,0.64 0.64,0.64 0.64,1.44 l 0,24.52 q 0,0.8 -0.6,1.4 -0.56,0.64 -1.96,0.68 -1.4,0.04 -2.04,-0.68 -0.6,-0.68 -0.6,-1.4 l 0,-10.4 -12.16,0 0,10.4 q 0,0.8 -0.6,1.4 -0.56,0.64 -1.96,0.68 -1.4,0.04 -2.04,-0.68 -0.6,-0.68 -0.6,-1.4 l 0,-24.52 q 0,-0.72 0.6,-1.4 0.64,-0.68 2.04,-0.68 1.4,0 1.96,0.64 0.6,0.64 0.6,1.44 l 0,9.64 12.16,0 0,-9.64 z"
           style="font-style:normal;font-variant:normal;font-weight:normal;font-stretch:normal;font-family:'Yuanti SC';-inkscape-font-specification:'Yuanti SC';letter-spacing:0.26085481px;fill:#4d4d4d"
           id="path4969"
           inkscape:connector-curvature="0" /><path
           d="m 729.87859,153.23535 q 0,0.76 -0.68,1.4 -0.68,0.68 -1.84,0.68 -1.16,0 -1.84,-0.64 -0.68,-0.64 -0.68,-1.44 l 0,-17.6 q 0,-1.2 0.8,-1.76 0.8,-0.56 1.72,-0.56 0.92,0 1.72,0.56 0.8,0.52 0.8,1.76 l 0,17.6 z m -5.24,-24.72 q 0,-1.16 0.76,-1.92 0.8,-0.8 1.96,-0.8 1.16,0 1.92,0.8 0.8,0.76 0.8,1.92 0,1.16 -0.8,1.96 -0.76,0.76 -1.92,0.76 -1.16,0 -1.96,-0.76 -0.76,-0.8 -0.76,-1.96 z"
           style="font-style:normal;font-variant:normal;font-weight:normal;font-stretch:normal;font-family:'Yuanti SC';-inkscape-font-specification:'Yuanti SC';letter-spacing:0.26085481px;fill:#4d4d4d"
           id="path4971"
           inkscape:connector-curvature="0" /><path
           d="m 752.86694,153.87535 q 0,1.84 -0.8,3.36 -0.76,1.52 -2.12,2.56 -1.32,1.08 -3.2,1.64 -1.84,0.56 -4,0.52 -1.48,0 -2.56,-0.2 -1.04,-0.16 -1.88,-0.52 -0.8,-0.32 -1.44,-0.76 -0.6,-0.4 -1.24,-0.88 -0.36,-0.28 -0.72,-0.64 -0.32,-0.32 -0.52,-0.76 -0.16,-0.44 -0.16,-1.04 0.04,-0.56 0.4,-1.32 0.44,-0.92 1.12,-1.04 0.72,-0.08 1.52,0.6 0.96,0.84 2.28,1.44 1.32,0.6 3.56,0.52 1.12,0 2,-0.32 0.88,-0.32 1.44,-0.84 0.6,-0.52 0.88,-1.16 0.32,-0.6 0.32,-1.16 l 0,-2.8 q -0.68,1.8 -2.16,2.68 -1.48,0.84 -3.44,0.84 -1.96,0 -3.6,-0.68 -1.6,-0.72 -2.76,-2.08 -1.16,-1.4 -1.8,-3.4 -0.64,-2.04 -0.64,-4.68 0,-3.24 0.72,-5.32 0.76,-2.12 1.96,-3.32 1.24,-1.24 2.84,-1.72 1.6,-0.48 3.32,-0.48 1.92,0 3.4,1.04 1.48,1 2.24,3.04 l 0,-1.6 q 0,-0.64 0.6,-1.36 0.64,-0.72 1.92,-0.72 1.28,0 1.88,0.72 0.64,0.72 0.64,1.36 l 0,18.48 z m -14.36,-10.2 q 0,1.76 0.32,2.92 0.36,1.12 1,1.84 0.64,0.68 1.52,0.96 0.92,0.28 2.04,0.28 2.28,0 3.36,-1.4 1.08,-1.44 1.04,-4.56 -0.04,-6.28 -4.48,-6.36 -2.16,-0.04 -3.52,1.44 -1.32,1.44 -1.28,4.88 z"
           style="font-style:normal;font-variant:normal;font-weight:normal;font-stretch:normal;font-family:'Yuanti SC';-inkscape-font-specification:'Yuanti SC';letter-spacing:0.26085481px;fill:#4d4d4d"
           id="path4973"
           inkscape:connector-curvature="0" /><path
           d="m 770.2753,142.51535 q 0,-1.28 -0.16,-2.24 -0.16,-1 -0.6,-1.64 -0.4,-0.64 -1.16,-0.96 -0.76,-0.32 -1.92,-0.32 -0.96,0 -1.8,0.2 -0.8,0.2 -1.4,0.76 -0.56,0.52 -0.92,1.52 -0.32,0.96 -0.32,2.48 l 0,11.32 q 0,0.68 -0.72,1.16 -0.68,0.52 -1.76,0.52 -1.08,0 -1.8,-0.52 -0.68,-0.52 -0.68,-1.16 l 0,-27.48 q 0,-0.72 0.72,-1.2 0.76,-0.48 1.8,-0.48 1.04,0 1.72,0.48 0.72,0.48 0.72,1.2 l 0,10.4 q 0.36,-0.72 0.84,-1.36 0.52,-0.64 1.2,-1.16 0.72,-0.52 1.6,-0.8 0.92,-0.32 2.08,-0.32 1.56,0 2.92,0.48 1.36,0.48 2.36,1.44 1.04,0.92 1.64,2.36 0.6,1.44 0.6,3.36 l 0,13.08 q 0,0.72 -0.68,1.2 -0.64,0.48 -1.76,0.48 -1.12,0 -1.84,-0.48 -0.68,-0.48 -0.68,-1.2 l 0,-11.12 z"
           style="font-style:normal;font-variant:normal;font-weight:normal;font-stretch:normal;font-family:'Yuanti SC';-inkscape-font-specification:'Yuanti SC';letter-spacing:0.26085481px;fill:#4d4d4d"
           id="path4975"
           inkscape:connector-curvature="0" /><path
           d="m 779.40553,126.75535 q 0,-0.92 0.56,-1.4 0.6,-0.52 1.96,-0.52 1.36,0 1.92,0.52 0.6,0.52 0.6,1.44 l 0,26.84 q 0,0.72 -0.68,1.2 -0.68,0.48 -1.84,0.48 -1.16,0 -1.84,-0.48 -0.68,-0.48 -0.68,-1.2 l 0,-26.88 z"
           style="font-style:normal;font-variant:normal;font-weight:normal;font-stretch:normal;font-family:'Yuanti SC';-inkscape-font-specification:'Yuanti SC';letter-spacing:0.26085481px;fill:#4d4d4d"
           id="path4977"
           inkscape:connector-curvature="0" /><path
           d="m 794.12513,153.23535 q 0,0.76 -0.68,1.4 -0.68,0.68 -1.84,0.68 -1.16,0 -1.84,-0.64 -0.68,-0.64 -0.68,-1.44 l 0,-17.6 q 0,-1.2 0.8,-1.76 0.8,-0.56 1.72,-0.56 0.92,0 1.72,0.56 0.8,0.52 0.8,1.76 l 0,17.6 z m -5.24,-24.72 q 0,-1.16 0.76,-1.92 0.8,-0.8 1.96,-0.8 1.16,0 1.92,0.8 0.8,0.76 0.8,1.92 0,1.16 -0.8,1.96 -0.76,0.76 -1.92,0.76 -1.16,0 -1.96,-0.76 -0.76,-0.8 -0.76,-1.96 z"
           style="font-style:normal;font-variant:normal;font-weight:normal;font-stretch:normal;font-family:'Yuanti SC';-inkscape-font-specification:'Yuanti SC';letter-spacing:0.26085481px;fill:#4d4d4d"
           id="path4979"
           inkscape:connector-curvature="0" /><path
           d="m 817.11349,153.87535 q 0,1.84 -0.8,3.36 -0.76,1.52 -2.12,2.56 -1.32,1.08 -3.2,1.64 -1.84,0.56 -4,0.52 -1.48,0 -2.56,-0.2 -1.04,-0.16 -1.88,-0.52 -0.8,-0.32 -1.44,-0.76 -0.6,-0.4 -1.24,-0.88 -0.36,-0.28 -0.72,-0.64 -0.32,-0.32 -0.52,-0.76 -0.16,-0.44 -0.16,-1.04 0.04,-0.56 0.4,-1.32 0.44,-0.92 1.12,-1.04 0.72,-0.08 1.52,0.6 0.96,0.84 2.28,1.44 1.32,0.6 3.56,0.52 1.12,0 2,-0.32 0.88,-0.32 1.44,-0.84 0.6,-0.52 0.88,-1.16 0.32,-0.6 0.32,-1.16 l 0,-2.8 q -0.68,1.8 -2.16,2.68 -1.48,0.84 -3.44,0.84 -1.96,0 -3.6,-0.68 -1.6,-0.72 -2.76,-2.08 -1.16,-1.4 -1.8,-3.4 -0.64,-2.04 -0.64,-4.68 0,-3.24 0.72,-5.32 0.76,-2.12 1.96,-3.32 1.24,-1.24 2.84,-1.72 1.6,-0.48 3.32,-0.48 1.92,0 3.4,1.04 1.48,1 2.24,3.04 l 0,-1.6 q 0,-0.64 0.6,-1.36 0.64,-0.72 1.92,-0.72 1.28,0 1.88,0.72 0.64,0.72 0.64,1.36 l 0,18.48 z m -14.36,-10.2 q 0,1.76 0.32,2.92 0.36,1.12 1,1.84 0.64,0.68 1.52,0.96 0.92,0.28 2.04,0.28 2.28,0 3.36,-1.4 1.08,-1.44 1.04,-4.56 -0.04,-6.28 -4.48,-6.36 -2.16,-0.04 -3.52,1.44 -1.32,1.44 -1.28,4.88 z"
           style="font-style:normal;font-variant:normal;font-weight:normal;font-stretch:normal;font-family:'Yuanti SC';-inkscape-font-specification:'Yuanti SC';letter-spacing:0.26085481px;fill:#4d4d4d"
           id="path4981"
           inkscape:connector-curvature="0" /><path
           d="m 834.52184,142.51535 q 0,-1.28 -0.16,-2.24 -0.16,-1 -0.6,-1.64 -0.4,-0.64 -1.16,-0.96 -0.76,-0.32 -1.92,-0.32 -0.96,0 -1.8,0.2 -0.8,0.2 -1.4,0.76 -0.56,0.52 -0.92,1.52 -0.32,0.96 -0.32,2.48 l 0,11.32 q 0,0.68 -0.72,1.16 -0.68,0.52 -1.76,0.52 -1.08,0 -1.8,-0.52 -0.68,-0.52 -0.68,-1.16 l 0,-27.48 q 0,-0.72 0.72,-1.2 0.76,-0.48 1.8,-0.48 1.04,0 1.72,0.48 0.72,0.48 0.72,1.2 l 0,10.4 q 0.36,-0.72 0.84,-1.36 0.52,-0.64 1.2,-1.16 0.72,-0.52 1.6,-0.8 0.92,-0.32 2.08,-0.32 1.56,0 2.92,0.48 1.36,0.48 2.36,1.44 1.04,0.92 1.64,2.36 0.6,1.44 0.6,3.36 l 0,13.08 q 0,0.72 -0.68,1.2 -0.64,0.48 -1.76,0.48 -1.12,0 -1.84,-0.48 -0.68,-0.48 -0.68,-1.2 l 0,-11.12 z"
           style="font-style:normal;font-variant:normal;font-weight:normal;font-stretch:normal;font-family:'Yuanti SC';-inkscape-font-specification:'Yuanti SC';letter-spacing:0.26085481px;fill:#4d4d4d"
           id="path4983"
           inkscape:connector-curvature="0" /><path
           d="m 850.65207,138.23535 0,8.96 q 0,1.12 0.08,1.84 0.08,0.72 0.32,1.16 0.24,0.4 0.68,0.56 0.48,0.16 1.24,0.16 0.72,0 1.44,-0.4 0.72,-0.4 1.36,-0.68 0.72,-0.32 1.28,0.04 0.56,0.32 0.56,1.44 0,1.12 -0.44,1.88 -0.44,0.72 -1.2,1.2 -0.76,0.44 -1.8,0.64 -1,0.24 -2.2,0.28 -1.32,0.04 -2.48,-0.2 -1.16,-0.2 -2.04,-0.84 -0.84,-0.64 -1.36,-1.72 -0.48,-1.12 -0.48,-2.88 l 0,-11.44 -1.6,0 q -1.12,0 -1.52,-0.6 -0.36,-0.64 -0.36,-1.8 0,-1.2 0.36,-1.72 0.36,-0.52 1.4,-0.52 l 1.72,0 0,-2.08 q 0,-1.28 0.44,-1.92 0.48,-0.64 2.12,-0.64 1.68,0 2.08,0.56 0.4,0.52 0.4,1.56 l 0,2.52 4.16,0 q 1.4,0 1.8,0.56 0.44,0.52 0.48,1.68 0.04,1.16 -0.44,1.8 -0.48,0.6 -2,0.6 l -4,0 z"
           style="font-style:normal;font-variant:normal;font-weight:normal;font-stretch:normal;font-family:'Yuanti SC';-inkscape-font-specification:'Yuanti SC';letter-spacing:0.26085481px;fill:#4d4d4d"
           id="path4985"
           inkscape:connector-curvature="0" /><path
           d="m 872.51355,142.47535 q 0,-1 -0.16,-1.92 -0.16,-0.96 -0.6,-1.64 -0.4,-0.72 -1.12,-1.12 -0.68,-0.44 -1.8,-0.44 -1.44,0 -2.32,0.52 -0.88,0.48 -1.36,1.28 -0.48,0.76 -0.64,1.68 -0.16,0.88 -0.16,1.64 l 8.16,0 z m -3.56,13.24 q -2.44,0 -4.24,-0.8 -1.8,-0.8 -3,-2.24 -1.2,-1.48 -1.8,-3.56 -0.6,-2.08 -0.6,-4.64 0,-2.48 0.6,-4.6 0.6,-2.12 1.8,-3.64 1.24,-1.56 3.04,-2.44 1.8,-0.88 4.2,-0.88 2.28,0 3.88,0.8 1.6,0.8 2.6,2.16 1.04,1.36 1.52,3.16 0.48,1.8 0.48,3.8 0,1.68 -0.44,2.56 -0.44,0.88 -1.64,0.88 l -11,0 q 0,0.92 0.2,1.8 0.2,0.88 0.72,1.6 0.56,0.72 1.44,1.16 0.92,0.44 2.32,0.44 1.8,0 2.8,-0.52 1.04,-0.56 1.64,-1.24 0.44,-0.52 0.88,-0.64 0.44,-0.12 0.8,0 0.4,0.08 0.68,0.28 0.32,0.2 0.52,0.32 0.76,0.6 0.6,1.68 -0.16,1.04 -1.16,2.08 -0.96,1 -2.72,1.72 -1.72,0.76 -4.12,0.76 z"
           style="font-style:normal;font-variant:normal;font-weight:normal;font-stretch:normal;font-family:'Yuanti SC';-inkscape-font-specification:'Yuanti SC';letter-spacing:0.26085481px;fill:#4d4d4d"
           id="path4987"
           inkscape:connector-curvature="0" /><path
           d="m 891.37441,137.35535 q -1.4,0 -2.48,0.52 -1.04,0.52 -1.76,1.44 -0.68,0.92 -1.04,2.2 -0.32,1.28 -0.32,2.76 l 0,9.36 q 0,0.68 -0.72,1.16 -0.68,0.52 -1.76,0.52 -1.08,0 -1.8,-0.52 -0.68,-0.52 -0.68,-1.16 l 0,-18.64 q 0,-0.72 0.72,-1.2 0.76,-0.48 1.8,-0.48 1.04,0 1.72,0.48 0.72,0.48 0.72,1.2 l 0,2.8 q 0.36,-0.72 0.84,-1.56 0.52,-0.84 1.2,-1.56 0.72,-0.76 1.6,-1.24 0.92,-0.52 2.08,-0.52 0.6,0 0.96,0.2 0.36,0.2 0.56,0.48 0.2,0.28 0.24,0.6 0.08,0.32 0.08,0.6 0,1.52 -0.52,2.04 -0.48,0.52 -1.44,0.52 z"
           style="font-style:normal;font-variant:normal;font-weight:normal;font-stretch:normal;font-family:'Yuanti SC';-inkscape-font-specification:'Yuanti SC';letter-spacing:0.26085481px;fill:#4d4d4d"
           id="path4989"
           inkscape:connector-curvature="0" /><path
           d="m 896.58588,152.79535 q 0,-1.16 0.76,-1.92 0.8,-0.8 1.96,-0.8 1.16,0 1.92,0.8 0.8,0.76 0.8,1.92 0,1.16 -0.8,1.92 -0.76,0.8 -1.92,0.8 -1.16,0 -1.96,-0.8 -0.76,-0.76 -0.76,-1.92 z"
           style="font-style:normal;font-variant:normal;font-weight:normal;font-stretch:normal;font-family:'Yuanti SC';-inkscape-font-specification:'Yuanti SC';letter-spacing:0.26085481px"
           id="path4991"
           inkscape:connector-curvature="0" /><path
           d="m 913.523,133.31535 q -0.92,0 -1.72,0.56 -0.8,0.52 -0.8,1.64 l 0,18.96 q 0,0.32 -0.12,0.84 -0.08,0.52 -0.28,1 -0.2,0.48 -0.56,0.8 -0.36,0.36 -0.84,0.36 -0.56,0 -1.2,-0.24 -0.6,-0.24 -1.2,-0.24 -0.8,0 -1.28,0.68 -0.44,0.68 -0.44,1.36 0,0.84 0.44,1.4 0.44,0.6 1.12,0.92 0.68,0.36 1.48,0.52 0.84,0.16 1.6,0.16 1.44,0 2.6,-0.52 1.2,-0.48 2,-1.4 0.84,-0.88 1.28,-2.08 0.44,-1.2 0.44,-2.64 l 0,-19.92 q 0,-1.12 -0.8,-1.64 -0.8,-0.52 -1.72,-0.52 z m 0,-2.08 q -1.16,0 -1.96,-0.76 -0.76,-0.8 -0.76,-1.96 0,-1.16 0.76,-1.92 0.8,-0.8 1.96,-0.8 1.16,0 1.92,0.8 0.8,0.76 0.8,1.92 0,1.16 -0.8,1.96 -0.76,0.76 -1.92,0.76 z"
           style="font-style:normal;font-variant:normal;font-weight:normal;font-stretch:normal;font-family:'Yuanti SC';-inkscape-font-specification:'Yuanti SC';letter-spacing:0.26085481px"
           id="path4993"
           inkscape:connector-curvature="0" /><path
           d="m 928.36822,151.07535 q 1.32,0 2.2,-0.6 0.92,-0.6 0.92,-1.68 0,-0.48 -0.2,-0.84 -0.16,-0.4 -0.68,-0.72 -0.48,-0.36 -1.36,-0.68 -0.84,-0.36 -2.2,-0.76 -1.68,-0.48 -2.88,-1 -1.2,-0.52 -2,-1.24 -0.76,-0.72 -1.16,-1.72 -0.36,-1 -0.36,-2.4 0,-1.48 0.6,-2.64 0.6,-1.2 1.64,-2 1.08,-0.84 2.48,-1.24 1.4,-0.44 2.96,-0.44 1.64,0 3,0.36 1.4,0.36 2.36,0.92 1,0.56 1.56,1.2 0.56,0.64 0.56,1.16 0,1.2 -0.4,2.24 -0.4,1 -1.28,1 -0.28,0 -0.56,-0.2 -0.28,-0.24 -0.8,-0.68 -0.92,-0.72 -1.84,-1.16 -0.92,-0.44 -2.56,-0.48 -1.04,-0.04 -1.92,0.4 -0.84,0.44 -0.84,1.48 0,0.48 0.2,0.8 0.2,0.32 0.72,0.6 0.52,0.24 1.32,0.52 0.84,0.28 2.12,0.64 1.36,0.4 2.56,0.92 1.2,0.52 2.08,1.28 0.88,0.76 1.36,1.88 0.52,1.08 0.52,2.64 0,1.6 -0.72,2.88 -0.72,1.28 -1.92,2.16 -1.16,0.88 -2.64,1.36 -1.48,0.48 -3,0.48 -1.8,0 -3.32,-0.48 -1.48,-0.48 -2.52,-1.12 -1.04,-0.68 -1.64,-1.36 -0.56,-0.72 -0.56,-1.2 0,-0.48 0.08,-1 0.08,-0.56 0.28,-1 0.2,-0.48 0.48,-0.8 0.32,-0.32 0.8,-0.32 0.4,0 0.84,0.44 0.44,0.44 1.12,1 0.72,0.52 1.8,0.96 1.12,0.44 2.8,0.44 z"
           style="font-style:normal;font-variant:normal;font-weight:normal;font-stretch:normal;font-family:'Yuanti SC';-inkscape-font-specification:'Yuanti SC';letter-spacing:0.26085481px"
           id="path4995"
           inkscape:connector-curvature="0" /></g></g></g></svg>